<?xml version="1.0" encoding="utf-8"?>
<!-- Generator: Adobe Illustrator 18.1.1, SVG Export Plug-In . SVG Version: 6.00 Build 0)  -->
<svg version="1.1" id="Full" xmlns="http://www.w3.org/2000/svg" xmlns:xlink="http://www.w3.org/1999/xlink" x="0px" y="0px"
	 viewBox="0 0 1600 1000" enable-background="new 0 0 1600 1000" xml:space="preserve">
<g id="Blue">
	<polygon fill="#33C3F0" points="1351.9,850.4 1298.4,647.7 1500.7,702.7 	"/>
	<polygon fill="#33C3F0" points="924.5,430 1106,295.6 1131.6,520 	"/>
	<polygon fill="#33C3F0" points="1154.7,416.5 1204.8,591.7 1028,547.5 	"/>
	<polygon fill="#33C3F0" points="1409.1,322.6 1589.3,480.6 1362.4,557.6 	"/>
	<polygon fill="#33C3F0" points="723.7,568.8 565.6,697.9 532.9,496.5 	"/>
	<polygon fill="#33C3F0" points="1135,740.2 1077.7,575.2 1249.3,608.1 	"/>
	<polygon fill="#33C3F0" points="890.8,767 830.7,615.1 992.4,639.1 	"/>
	<polygon fill="#33C3F0" points="927.3,499.2 842.7,366.3 1000,359.5 	"/>
	<polygon fill="#33C3F0" points="1353.7,862.6 1476.6,676.1 1576.6,875.8 	"/>
	<polygon fill="#33C3F0" points="809.5,572 701.5,468.4 845.2,426.7 	"/>
	<polygon fill="#33C3F0" points="165.1,606.4 65.6,567.9 148.8,501 	"/>
	<polygon fill="#33C3F0" points="1526.3,360.6 1598.4,335.5 1584.2,410.6 	"/>
	<polygon fill="#33C3F0" points="283.6,448.1 284.7,402.6 323.6,426.2 	"/>
	<polygon fill="#33C3F0" points="258.3,533.8 463,467.8 417.8,678.2 	"/>
	<polygon fill="#33C3F0" points="1268.3,599.9 1158.3,544.2 1261.6,476.8 	"/>
	<polygon fill="#33C3F0" points="-123.5,484.9 -164.1,458.7 -121.1,436.7 	"/>
	<polygon fill="#33C3F0" points="771.3,779.3 746.8,807.7 734.5,772.2 	"/>
	<polygon fill="#33C3F0" points="539,714 412.2,603 571.7,548.7 	"/>
	<polygon fill="#33C3F0" points="1244,821.5 1298.9,732.6 1348.5,824.6 	"/>
	<polygon fill="#33C3F0" points="1571.9,250.7 1521.1,445.6 1377.7,304.2 	"/>
</g>
<g id="Bluer">
	<polygon fill="#3498DB" points="517.5,712.5 490.9,742.3 478.4,704.4 	"/>
	<polygon fill="#3498DB" points="703.9,391.9 692.9,425.5 669.3,399.2 	"/>
	<polygon fill="#3498DB" points="1473.7,466.8 1275.3,615.8 1245.4,369.4 	"/>
	<polygon fill="#3498DB" points="830,400 795.9,405 808.7,373 	"/>
	<polygon fill="#3498DB" points="823.4,767.4 881.9,742.3 874.4,805.5 	"/>
	<polygon fill="#3498DB" points="1248.5,362.2 1270.8,233 1371.5,316.9 	"/>
	<polygon fill="#3498DB" points="1573.4,570.9 1564.6,606.4 1538.2,581.1 	"/>
	<polygon fill="#3498DB" points="1165.8,553.4 1036.1,779.5 905.1,554.2 	"/>
	<polygon fill="#3498DB" points="294.5,550.3 518,696.8 279.3,817.1 	"/>
	<polygon fill="#3498DB" points="1207,500 1134.2,335.1 1313.4,354.5 	"/>
	<polygon fill="#3498DB" points="1192.6,822.8 1173.7,796.3 1206.1,793.2 	"/>
	<polygon fill="#3498DB" points="478.1,459.4 567.7,320.8 643,467.6 	"/>
	<polygon fill="#3498DB" points="633.3,533.4 630.2,460.3 695,494.1 	"/>
	<polygon fill="#3498DB" points="585.7,592 331.9,517.3 523.5,334.9 	"/>
	<polygon fill="#3498DB" points="147.8,459.6 86.6,430.2 142.7,391.9 	"/>
	<polygon fill="#3498DB" points="-116.3,499.6 -129.9,341.1 14.1,408.6 	"/>
	<polygon fill="#3498DB" points="-250.7,252.6 -230,304.9 -285.7,296.8 	"/>
	<polygon fill="#3498DB" points="1543.8,246.7 1428.3,283.1 1454.5,164.8 	"/>
	<polygon fill="#3498DB" points="790.8,508.2 958.2,478.7 900,638.4 	"/>
	<polygon fill="#3498DB" points="-147,365.1 -188.4,356.9 -160.6,325.2 	"/>
</g>
<g id="Bluest">
	<polygon fill="#2980B9" points="1537.2,747 1541.9,697.6 1582.3,726.4 	"/>
	<polygon fill="#2980B9" points="1296.4,738.1 1207.9,502 1456.6,543.4 	"/>
	<polygon fill="#2980B9" points="984.5,496 1026.4,554.4 954.8,561.5 	"/>
	<polygon fill="#2980B9" points="820.8,723.3 665.4,789.2 686,621.6 	"/>
	<polygon fill="#2980B9" points="1431.6,591.6 1483.7,685.4 1376.5,683.7 	"/>
	<polygon fill="#2980B9" points="1571.3,200.8 1597.3,227.2 1561.5,236.5 	"/>
	<polygon fill="#2980B9" points="1556.5,610.9 1368.7,611.3 1462.3,448.5 	"/>
	<polygon fill="#2980B9" points="16.1,564.6 -12.9,575.3 -7.6,544.9 	"/>
	<polygon fill="#2980B9" points="1552.2,117.4 1607.4,112.5 1584.1,162.8 	"/>
	<polygon fill="#2980B9" points="643.1,546.9 879.5,536.2 770.5,746.3 	"/>
	<polygon fill="#2980B9" points="299.3,733.6 119.8,661.5 271.9,542.1 	"/>
	<polygon fill="#2980B9" points="1170.9,811.5 1039.7,786.2 1127.3,685.2 	"/>
	<polygon fill="#2980B9" points="1469.8,374.9 1321.9,420.3 1356.6,269.5 	"/>
	<polygon fill="#2980B9" points="392.8,461.8 248,672.2 138.1,441.6 	"/>
	<polygon fill="#2980B9" points="687.8,796.9 531.2,749.6 650.4,637.6 	"/>
	<polygon fill="#2980B9" points="1008.4,752.5 1018.3,792.5 978.7,781 	"/>
	<polygon fill="#2980B9" points="1187.8,743.5 1239.4,614.7 1325.1,723.8 	"/>
	<polygon fill="#2980B9" points="1120.1,353.2 1117.7,316.6 1150.6,332.9 	"/>
	<polygon fill="#2980B9" points="-77.9,472.8 90.4,387.6 80,575.9 	"/>
	<polygon fill="#2980B9" points="1590.7,477.4 1562.4,493.3 1562.7,460.8 	"/>
</g>
</svg>
